<svg width="61" height="21" viewBox="0 0 61 21" fill="none" xmlns="http://www.w3.org/2000/svg">
<path d="M32.4219 17H30.8594L28.9844 13.8594C28.8125 13.5677 28.6458 13.3203 28.4844 13.1172C28.3229 12.9089 28.1562 12.7396 27.9844 12.6094C27.8177 12.4792 27.6354 12.3854 27.4375 12.3281C27.2448 12.2656 27.026 12.2344 26.7812 12.2344H25.7031V17H24.3906V5.79688H27.7344C28.224 5.79688 28.6745 5.85938 29.0859 5.98438C29.5026 6.10417 29.862 6.28906 30.1641 6.53906C30.4714 6.78906 30.7109 7.10156 30.8828 7.47656C31.0547 7.84635 31.1406 8.28125 31.1406 8.78125C31.1406 9.17188 31.0807 9.53125 30.9609 9.85938C30.8464 10.1823 30.6797 10.4714 30.4609 10.7266C30.2474 10.9818 29.987 11.2005 29.6797 11.3828C29.3776 11.5599 29.0365 11.6979 28.6562 11.7969V11.8281C28.8438 11.9115 29.0052 12.0078 29.1406 12.1172C29.2812 12.2214 29.4141 12.3464 29.5391 12.4922C29.6641 12.638 29.7865 12.8047 29.9062 12.9922C30.0312 13.1745 30.1693 13.388 30.3203 13.6328L32.4219 17ZM25.7031 6.98438V11.0469H27.4844C27.8125 11.0469 28.1146 10.9974 28.3906 10.8984C28.6719 10.7995 28.9141 10.6589 29.1172 10.4766C29.3203 10.2891 29.4792 10.0625 29.5938 9.79688C29.7083 9.52604 29.7656 9.22396 29.7656 8.89062C29.7656 8.29167 29.5703 7.82552 29.1797 7.49219C28.7943 7.15365 28.2344 6.98438 27.5 6.98438H25.7031ZM39.7578 13.3203H34.1094C34.1302 14.2109 34.3698 14.8984 34.8281 15.3828C35.2865 15.8672 35.9167 16.1094 36.7188 16.1094C37.6198 16.1094 38.4479 15.8125 39.2031 15.2188V16.4219C38.5 16.9323 37.5703 17.1875 36.4141 17.1875C35.2839 17.1875 34.3958 16.8255 33.75 16.1016C33.1042 15.3724 32.7812 14.349 32.7812 13.0312C32.7812 11.7865 33.1328 10.7734 33.8359 9.99219C34.5443 9.20573 35.4219 8.8125 36.4688 8.8125C37.5156 8.8125 38.3255 9.15104 38.8984 9.82812C39.4714 10.5052 39.7578 11.4453 39.7578 12.6484V13.3203ZM38.4453 12.2344C38.4401 11.4948 38.2604 10.9193 37.9062 10.5078C37.5573 10.0964 37.0703 9.89062 36.4453 9.89062C35.8411 9.89062 35.3281 10.1068 34.9062 10.5391C34.4844 10.9714 34.224 11.5365 34.125 12.2344H38.4453ZM41.2188 16.7109V15.3359C41.9167 15.8516 42.6849 16.1094 43.5234 16.1094C44.6484 16.1094 45.2109 15.7344 45.2109 14.9844C45.2109 14.7708 45.1615 14.5911 45.0625 14.4453C44.9688 14.2943 44.8385 14.1615 44.6719 14.0469C44.5104 13.9323 44.3177 13.8307 44.0938 13.7422C43.875 13.6484 43.638 13.5521 43.3828 13.4531C43.0286 13.3125 42.7161 13.1719 42.4453 13.0312C42.1797 12.8854 41.9557 12.724 41.7734 12.5469C41.5964 12.3646 41.4609 12.1589 41.3672 11.9297C41.2786 11.7005 41.2344 11.4323 41.2344 11.125C41.2344 10.75 41.3203 10.4193 41.4922 10.1328C41.6641 9.84115 41.8932 9.59896 42.1797 9.40625C42.4661 9.20833 42.7917 9.0599 43.1562 8.96094C43.526 8.86198 43.9062 8.8125 44.2969 8.8125C44.9896 8.8125 45.6094 8.93229 46.1562 9.17188V10.4688C45.5677 10.0833 44.8906 9.89062 44.125 9.89062C43.8854 9.89062 43.6693 9.91927 43.4766 9.97656C43.2839 10.0286 43.1172 10.1042 42.9766 10.2031C42.8411 10.3021 42.7344 10.4219 42.6562 10.5625C42.5833 10.6979 42.5469 10.849 42.5469 11.0156C42.5469 11.224 42.5833 11.3984 42.6562 11.5391C42.7344 11.6797 42.8464 11.8047 42.9922 11.9141C43.138 12.0234 43.3151 12.1224 43.5234 12.2109C43.7318 12.2995 43.9688 12.3958 44.2344 12.5C44.5885 12.6354 44.9062 12.776 45.1875 12.9219C45.4688 13.0625 45.7083 13.224 45.9062 13.4062C46.1042 13.5833 46.2552 13.7891 46.3594 14.0234C46.4688 14.2578 46.5234 14.5365 46.5234 14.8594C46.5234 15.2552 46.4349 15.599 46.2578 15.8906C46.0859 16.1823 45.8542 16.4245 45.5625 16.6172C45.2708 16.8099 44.9349 16.9531 44.5547 17.0469C44.1745 17.1406 43.776 17.1875 43.3594 17.1875C42.5365 17.1875 41.8229 17.0286 41.2188 16.7109ZM54.9297 13.3203H49.2812C49.3021 14.2109 49.5417 14.8984 50 15.3828C50.4583 15.8672 51.0885 16.1094 51.8906 16.1094C52.7917 16.1094 53.6198 15.8125 54.375 15.2188V16.4219C53.6719 16.9323 52.7422 17.1875 51.5859 17.1875C50.4557 17.1875 49.5677 16.8255 48.9219 16.1016C48.276 15.3724 47.9531 14.349 47.9531 13.0312C47.9531 11.7865 48.3047 10.7734 49.0078 9.99219C49.7161 9.20573 50.5938 8.8125 51.6406 8.8125C52.6875 8.8125 53.4974 9.15104 54.0703 9.82812C54.6432 10.5052 54.9297 11.4453 54.9297 12.6484V13.3203ZM53.6172 12.2344C53.612 11.4948 53.4323 10.9193 53.0781 10.5078C52.7292 10.0964 52.2422 9.89062 51.6172 9.89062C51.013 9.89062 50.5 10.1068 50.0781 10.5391C49.6562 10.9714 49.3958 11.5365 49.2969 12.2344H53.6172ZM60.5859 16.9219C60.2839 17.0885 59.8854 17.1719 59.3906 17.1719C57.9896 17.1719 57.2891 16.3906 57.2891 14.8281V10.0938H55.9141V9H57.2891V7.04688L58.5703 6.63281V9H60.5859V10.0938H58.5703V14.6016C58.5703 15.138 58.6615 15.5208 58.8438 15.75C59.026 15.9792 59.3281 16.0938 59.75 16.0938C60.0729 16.0938 60.3516 16.0052 60.5859 15.8281V16.9219Z" fill="#888888"/>
<path fill-rule="evenodd" clip-rule="evenodd" d="M9 3.17C13.3244 3.17 16.83 6.67561 16.83 11C16.83 15.3244 13.3244 18.83 9 18.83V20C13.9706 20 18 15.9706 18 11C18 6.02944 13.9706 2 9 2C5.64428 2 2.71752 3.83656 1.17 6.55937C0.936352 6.97046 0.734144 7.40177 0.566648 7.85L1.72363 8.10242C1.88368 7.70084 2.07602 7.31564 2.29743 6.95C3.66943 4.68426 6.15788 3.17 9 3.17Z" fill="#888888"/>
<path d="M9 18.83V20C6.26811 20 3.8205 18.7828 2.16993 16.8611L3 16.0311C4.43633 17.7422 6.59113 18.83 9 18.83Z" fill="#888888"/>
<path fill-rule="evenodd" clip-rule="evenodd" d="M1.17 7.13H5.13H6.3V8.3H2.86102e-06V2H1.17V3.17V7.13Z" fill="#888888"/>
</svg>
